<svg xmlns="http://www.w3.org/2000/svg" viewBox="0 0 306.51 50.46"><defs><style>.cls-1{fill:#fff;}</style></defs><title>shankTitle</title><g id="Capa_2" data-name="Capa 2"><g id="Layer_1" data-name="Layer 1"><path class="cls-1" d="M13.55,35.25c.41,2.77,3.79,4.6,7.64,4.6,4.29,0,6.93-1.72,6.93-4.09s-1.79-3.25-7-4.19l-6.46-1.15C5.68,28.86.81,23.73.81,16.09.81,6.22,9.26,0,20.89,0c13,0,20.25,5.95,20.31,15.41H28.12c-.1-3-3.11-4.83-7-4.83S15,12.13,15,14.57s2,3.55,6.62,4.36l6.69,1.15c9.46,1.66,13.89,6.15,13.89,14.06,0,10-8.35,16.32-21.33,16.32S0,45,0,35.25Z"/><path class="cls-1" d="M93.6,49.62V30.76H76.43V49.62H62.1V.84H76.43V19.37H93.6V.84h14.33V49.62Z"/><path class="cls-1" d="M159.8,39.92H144.92l-2.54,9.7h-14.6L143.71.84h18l15.92,48.77H162.33ZM147.53,29.81h9.67L152.5,12.1h-.27Z"/><path class="cls-1" d="M197.46,49.62V.84h11.12l18.83,25.28h.27V.84H241.2V49.62h-11l-19-25.69H211V49.62Z"/><path class="cls-1" d="M261.05,49.62V.84h14.33V21.53h.27L290.73.84h15L289.71,22.51l16.8,27.11H289.85L279.2,31.7l-3.82,5.14V49.62Z"/></g></g></svg>