<svg xmlns="http://www.w3.org/2000/svg" xmlns:xlink="http://www.w3.org/1999/xlink" viewBox="0 0 306.51 316.29"><defs><style>.cls-1{isolation:isolate;}.cls-2{fill:url(#linear-gradient);}.cls-3{fill:#686a72;}.cls-4{opacity:0.9;}.cls-10,.cls-14,.cls-4,.cls-8,.cls-9{mix-blend-mode:overlay;}.cls-10,.cls-5{fill:#59595b;}.cls-6,.cls-9{fill:#434244;}.cls-7{fill:#3a393b;}.cls-11{fill:#eebd2c;}.cls-12{fill:#36492b;}.cls-13{fill:#b5c7d7;}.cls-14{opacity:0.3;}.cls-15{fill:#272425;}.cls-16{fill:#fff;}.cls-17{fill:#cc2e78;}</style><linearGradient id="linear-gradient" x1="72.64" y1="122.4" x2="223.91" y2="122.4" gradientUnits="userSpaceOnUse"><stop offset="0" stop-color="#9dc44d"/><stop offset="0.04" stop-color="#9ac24e"/><stop offset="0.35" stop-color="#87b258"/><stop offset="0.66" stop-color="#7ca95d"/><stop offset="1" stop-color="#78a65f"/></linearGradient></defs><title>shankLogo</title><g class="cls-1"><g id="Capa_2" data-name="Capa 2"><g id="Layer_1" data-name="Layer 1"><polygon class="cls-2" points="72.64 55.53 147.18 5.84 223.91 55.53 223.91 81.11 177.87 81.11 148.28 54.44 109.93 89.95 125.93 94.66 192.76 114.33 223.91 123.5 223.91 191.46 148.28 238.96 72.64 192.19 72.64 164.79 120.14 164.79 148.28 187.08 186.64 156.75 72.64 122.4 72.64 55.53"/><line class="cls-3" x1="177.87" y1="81.11" x2="147.18" y2="5.84"/><g class="cls-4"><polygon class="cls-3" points="147.18 5.84 148.28 54.44 177.87 81.11 147.18 5.84"/><polygon class="cls-5" points="147.18 5.84 148.28 54.44 109.93 89.95 147.18 5.84"/><polyline class="cls-5" points="177.87 81.11 223.91 55.53 223.91 81.11"/><polyline class="cls-6" points="147.18 5.84 223.91 55.53 177.87 81.11"/><polyline class="cls-7" points="72.64 55.53 109.93 89.95 147.18 5.84"/><polyline class="cls-3" points="72.64 55.53 109.93 89.95 72.64 122.4 147.18 122.4 109.93 89.95"/></g><g class="cls-8"><polygon class="cls-3" points="148.36 238.96 148.28 187.08 120.14 164.79 148.36 238.96"/><polygon class="cls-5" points="148.36 238.96 148.28 187.08 185.61 154.85 148.36 238.96"/><polyline class="cls-5" points="120.14 164.79 72.64 192.19 72.64 164.79"/><polyline class="cls-6" points="148.28 238.96 72.64 192.19 120.14 164.79"/><polyline class="cls-6" points="223.91 191.46 185.61 154.85 148.36 238.96"/><polyline class="cls-3" points="223.91 123.5 185.61 154.85 223.91 191.46"/></g><polyline class="cls-9" points="147.18 122.4 184.25 156.03 223.91 123.5"/><polygon class="cls-10" points="109.93 89.95 147.18 122.4 223.91 123.5 109.93 89.95"/><polygon class="cls-11" points="147.61 7.26 190.8 20.69 147.61 34.11 147.61 7.26"/><ellipse class="cls-12" cx="144.89" cy="121.48" rx="10.71" ry="12.25"/><path class="cls-13" d="M147.61,123.21a3.08,3.08,0,0,1-3.08,3.08h0a3.08,3.08,0,0,1-3.08-3.08V3.09A3.08,3.08,0,0,1,144.53,0h0a3.08,3.08,0,0,1,3.08,3.09Z"/><g class="cls-14"><polygon class="cls-15" points="167.85 232.08 207.94 211.96 163.24 208.25 167.85 232.08"/><path class="cls-15" d="M147.94,129.17a3,3,0,0,0-3.56-2.15h0a3,3,0,0,0-2.5,3.32L162.51,237a3,3,0,0,0,3.56,2.15h0a3,3,0,0,0,2.5-3.32Z"/></g><ellipse class="cls-16" cx="144.56" cy="2.42" rx="3.05" ry="2.42"/><path class="cls-17" d="M153.66,23.25c.1.71,1,1.18,2,1.18s1.78-.44,1.78-1-.46-.83-1.8-1.07L153.93,22c-2.29-.4-3.54-1.71-3.54-3.67,0-2.53,2.16-4.12,5.14-4.12,3.33,0,5.19,1.52,5.2,3.95h-3.35c0-.78-.8-1.24-1.78-1.24s-1.57.4-1.57,1,.51.91,1.7,1.12l1.71.29c2.42.42,3.56,1.58,3.56,3.6,0,2.55-2.14,4.18-5.46,4.18s-5.35-1.4-5.36-3.9Z"/><path class="cls-16" d="M13.55,301.08c.41,2.77,3.79,4.6,7.64,4.6,4.29,0,6.93-1.72,6.93-4.09s-1.79-3.25-7-4.19l-6.46-1.15c-9-1.55-13.82-6.69-13.82-14.33,0-9.87,8.45-16.09,20.08-16.09,13,0,20.25,5.95,20.31,15.41H28.12c-.1-3-3.11-4.83-7-4.83S15,278,15,280.4s2,3.55,6.62,4.36l6.69,1.15c9.46,1.66,13.89,6.15,13.89,14.06,0,10-8.35,16.32-21.33,16.32S0,310.81,0,301.08Z"/><path class="cls-16" d="M93.6,315.45V296.59H76.43v18.86H62.1V266.67H76.43V285.2H93.6V266.67h14.33v48.77Z"/><path class="cls-16" d="M159.8,305.75H144.92l-2.53,9.7h-14.6l15.92-48.77h18l15.92,48.77H162.33Zm-12.27-10.11h9.67l-4.7-17.71h-.27Z"/><path class="cls-16" d="M197.46,315.45V266.67h11.12L227.41,292h.27V266.67H241.2v48.77h-11l-19-25.69H211v25.69Z"/><path class="cls-16" d="M261.05,315.45V266.67h14.33v20.68h.27l15.07-20.68h15l-16.05,21.67,16.8,27.11H289.85L279.2,297.53l-3.82,5.14v12.78Z"/></g></g></g></svg>