<svg xmlns="http://www.w3.org/2000/svg" xmlns:xlink="http://www.w3.org/1999/xlink" viewBox="0 0 241.11 367.07"><defs><style>.cls-1,.cls-4,.cls-7{fill:none;}.cls-2{isolation:isolate;}.cls-3{clip-path:url(#clip-path);}.cls-4,.cls-7{stroke:#fff;stroke-miterlimit:10;stroke-width:2px;}.cls-5{opacity:0.9;}.cls-5,.cls-6,.cls-7{mix-blend-mode:overlay;}</style><clipPath id="clip-path" transform="translate(-97.45 -28.55)"><rect class="cls-1" width="369.75" height="348.14"/></clipPath></defs><title>slider1Logo</title><g class="cls-2"><g id="Capa_2" data-name="Capa 2"><g id="Layer_1" data-name="Layer 1"><g class="cls-3"><polygon class="cls-4" points="2.67 81.33 116.57 5.4 233.81 81.33 233.81 120.41 163.47 120.41 118.24 79.66 59.65 133.92 84.1 141.12 186.21 171.17 233.81 185.18 233.81 289.02 118.24 361.6 2.67 290.14 2.67 248.26 75.25 248.26 118.24 282.32 176.87 235.98 2.67 183.5 2.67 81.33"/><line class="cls-4" x1="163.47" y1="120.41" x2="116.57" y2="5.4"/><g class="cls-5"><polygon class="cls-4" points="116.57 5.4 118.24 79.66 163.47 120.41 116.57 5.4"/><polygon class="cls-4" points="116.57 5.4 118.24 79.66 59.65 133.92 116.57 5.4"/><polyline class="cls-4" points="163.47 120.41 233.81 81.33 233.81 120.41"/><polyline class="cls-4" points="116.57 5.4 233.81 81.33 163.47 120.41"/><polyline class="cls-4" points="2.67 81.33 59.65 133.92 116.57 5.4"/><polyline class="cls-4" points="2.67 81.33 59.65 133.92 2.67 183.5 116.57 183.5 59.65 133.92"/></g><g class="cls-6"><polygon class="cls-4" points="118.37 361.6 118.24 282.32 75.25 248.26 118.37 361.6"/><polygon class="cls-4" points="118.37 361.6 118.24 282.32 175.29 233.08 118.37 361.6"/><polyline class="cls-4" points="75.25 248.26 2.67 290.14 2.67 248.26"/><polyline class="cls-4" points="118.24 361.6 2.67 290.14 75.25 248.26"/><polyline class="cls-4" points="233.81 289.02 175.29 233.08 118.37 361.6"/><polyline class="cls-4" points="233.81 185.18 175.29 233.08 233.81 289.02"/></g><polyline class="cls-7" points="116.57 183.5 173.2 234.88 233.81 185.18"/><polygon class="cls-7" points="59.65 133.92 116.57 183.5 233.81 185.18 59.65 133.92"/></g></g></g></g></svg>