<svg xmlns="http://www.w3.org/2000/svg" viewBox="0 0 158.95 243.5"><defs><style>.cls-1{isolation:isolate;}.cls-2{fill:none;stroke:#fff;stroke-miterlimit:10;stroke-width:1.86px;}.cls-3{opacity:0.9;}.cls-4{fill:#ebb92e;}.cls-5{fill:#272425;}.cls-6{fill:#b5c7d7;}.cls-7{opacity:0.3;mix-blend-mode:overlay;}.cls-8{fill:#fff;}.cls-9{fill:#2a3225;}</style></defs><title>shankLogoTrans</title><g class="cls-1"><g id="Capa_2" data-name="Capa 2"><g id="Layer_1" data-name="Layer 1"><polygon class="cls-2" points="2.48 54.77 77.11 5.02 153.94 54.77 153.94 80.38 107.84 80.38 78.21 53.68 39.82 89.23 55.84 93.95 122.75 113.64 153.94 122.82 153.94 190.86 78.21 238.42 2.48 191.59 2.48 164.15 50.04 164.15 78.21 186.47 116.62 156.11 2.48 121.72 2.48 54.77"/><line class="cls-2" x1="107.84" y1="80.38" x2="77.11" y2="5.02"/><g class="cls-3"><polygon class="cls-2" points="77.11 5.02 78.21 53.68 107.84 80.38 77.11 5.02"/><polygon class="cls-2" points="77.11 5.02 78.21 53.68 39.82 89.23 77.11 5.02"/><polyline class="cls-2" points="107.84 80.38 153.94 54.77 153.94 80.38"/><polyline class="cls-2" points="77.11 5.02 153.94 54.77 107.84 80.38"/><polyline class="cls-2" points="2.48 54.77 39.82 89.23 77.11 5.02"/><polyline class="cls-2" points="2.48 54.77 39.82 89.23 2.48 121.72 77.11 121.72 39.82 89.23"/></g><polygon class="cls-2" points="78.3 238.42 78.21 186.47 50.04 164.15 78.3 238.42"/><polygon class="cls-2" points="78.3 238.42 78.21 186.47 115.59 154.2 78.3 238.42"/><polyline class="cls-2" points="50.04 164.15 2.48 191.59 2.48 164.15"/><polyline class="cls-2" points="78.21 238.42 2.48 191.59 50.04 164.15"/><polyline class="cls-2" points="153.94 190.86 115.59 154.2 78.3 238.42"/><polyline class="cls-2" points="153.94 122.82 115.59 154.2 153.94 190.86"/><polyline class="cls-2" points="77.11 121.72 114.22 155.38 153.94 122.82"/><polygon class="cls-2" points="39.82 89.23 81.88 121.79 152.25 122.89 39.82 89.23"/><polygon class="cls-4" points="75.76 7.63 118.95 21.06 75.76 34.49 75.76 7.63"/><ellipse class="cls-5" cx="73.04" cy="121.86" rx="10.71" ry="12.25"/><path class="cls-6" d="M75.76,123.58a3.08,3.08,0,0,1-3.08,3.08h0a3.08,3.08,0,0,1-3.08-3.08V3.46A3.09,3.09,0,0,1,72.68.38h0a3.08,3.08,0,0,1,3.08,3.08Z"/><g class="cls-7"><polygon class="cls-5" points="96 232.46 136.09 212.34 91.39 208.62 96 232.46"/><path class="cls-5" d="M76.09,129.55a3,3,0,0,0-3.56-2.15h0a3,3,0,0,0-2.5,3.32L90.66,237.33a3,3,0,0,0,3.56,2.15h0a3,3,0,0,0,2.5-3.32Z"/></g><ellipse class="cls-8" cx="72.71" cy="2.8" rx="3.05" ry="2.42"/><path class="cls-9" d="M81.81,23.63c.1.71,1,1.18,2,1.18s1.77-.44,1.77-1-.46-.83-1.8-1.07l-1.65-.29c-2.29-.4-3.54-1.71-3.54-3.67,0-2.53,2.16-4.12,5.14-4.12,3.33,0,5.19,1.52,5.2,3.95H85.54c0-.78-.8-1.24-1.78-1.24s-1.57.4-1.57,1,.51.91,1.7,1.12l1.71.29c2.42.42,3.56,1.58,3.56,3.6,0,2.55-2.14,4.18-5.46,4.18s-5.35-1.4-5.36-3.9Z"/></g></g></g></svg>