<svg xmlns="http://www.w3.org/2000/svg" viewBox="0 0 43.15 31.27"><defs><style>.cls-1{fill:#fff;}</style></defs><title>Recurso 9</title><g id="Capa_2" data-name="Capa 2"><g id="Layer_1" data-name="Layer 1"><path class="cls-1" d="M35.76,12.56A7.39,7.39,0,1,0,23.34,5.48a7.13,7.13,0,0,0-3.53,0A7.39,7.39,0,1,0,7.4,12.56l-7.4,4V26H8.9v5.26H34.25V26h8.9V16.55ZM30.47,1.4a6,6,0,1,1-1.53,11.78c0-.18,0-.35,0-.53s0-.35,0-.53a7.31,7.31,0,0,0-.25-1.45,7.42,7.42,0,0,0-4-4.73A6,6,0,0,1,30.47,1.4ZM20,6.86a6,6,0,0,1,7.52,5.77v0c0,.07,0,.15,0,.22a6,6,0,0,1-2,4.25l-.21.18a6,6,0,0,1-1.1.71l-.3.15a6,6,0,0,1-4.76,0l-.3-.15a6,6,0,0,1-1.1-.71l-.21-.18a6,6,0,0,1-2-4.25c0-.07,0-.15,0-.22v0A6,6,0,0,1,20,6.86ZM6.68,7.4a6,6,0,0,1,11.8-1.45,7.42,7.42,0,0,0-4,4.73,7.33,7.33,0,0,0-.25,1.45c0,.17,0,.35,0,.53s0,.36,0,.53A6,6,0,0,1,6.68,7.4ZM8.9,24.61H1.4V17.38l7.15-3.86a7.31,7.31,0,0,0,5.89,1,7.39,7.39,0,0,0,1.85,3.25l-7.4,4Zm24,0v5.26H10.3V22.64l7.15-3.86.35.21a7.35,7.35,0,0,0,7.56,0l.35-.21,7.15,3.86Zm8.9,0h-7.5v-2.8l-7.39-4a7.39,7.39,0,0,0,1.85-3.25,7.31,7.31,0,0,0,5.89-1l7.15,3.86Z"/></g></g></svg>