<svg xmlns="http://www.w3.org/2000/svg" viewBox="0 0 42.85 42.93"><defs><style>.cls-1{fill:#b4b4b5;}</style></defs><title>Recurso 19</title><g id="Capa_2" data-name="Capa 2"><g id="Layer_1" data-name="Layer 1"><path class="cls-1" d="M41.66,0H36.78a1.32,1.32,0,0,0-1.13.72l-4.1,10.06c-7.09-3.57-23.22-4.1-28.28-.65C.89,11.8,0,15.67,0,18.7s.89,6.9,3.33,8.57c1.49,1,3.75,1.67,6.85,2.08A8.45,8.45,0,0,0,15.12,34h-.24a1.19,1.19,0,1,0,0,2.39h1.79v5.36a1.19,1.19,0,0,0,2.39,0V36.38H21A1.19,1.19,0,0,0,21,34h-.3a8.44,8.44,0,0,0,5.24-5.48,21.71,21.71,0,0,0,7.91-3.39c2.38-1.73,7.5-18.46,9-23.58A1.16,1.16,0,0,0,41.66,0ZM17.85,32a6.05,6.05,0,0,1-5.72-4.17,6.3,6.3,0,0,1-.3-1.79,6,6,0,1,1,6,6Zm14.59-8.87A19.71,19.71,0,0,1,26.25,26a8,8,0,0,0-.6-2.92h.42a1.19,1.19,0,1,0,0-2.39H24.28a8.43,8.43,0,0,0-6.37-3,8.15,8.15,0,0,0-6.37,3H8A1.19,1.19,0,1,0,8,23h2.14a8.67,8.67,0,0,0-.6,3,3.55,3.55,0,0,0,.06.77A13.37,13.37,0,0,1,4.63,25.3c-1.37-1-2.27-3.57-2.27-6.61S3.26,13,4.63,12.08c4.64-3.15,21.43-2.32,26.85,1.37a1.22,1.22,0,0,0,1.79-.53L37.62,2.38h2.5C37.2,12,33.63,22.15,32.44,23.16Z"/><path class="cls-1" d="M26.07,14.47H7.91a1.19,1.19,0,1,0,0,2.39H26.07a1.19,1.19,0,0,0,0-2.39Z"/></g></g></svg>