<svg xmlns="http://www.w3.org/2000/svg" xmlns:xlink="http://www.w3.org/1999/xlink" viewBox="0 0 38.73 38.73"><defs><style>.cls-1{isolation:isolate;}.cls-2{fill:#fff;}.cls-3{fill:url(#linear-gradient);}.cls-4{fill:#686a72;}.cls-5{opacity:0.9;}.cls-10,.cls-11,.cls-15,.cls-5,.cls-9{mix-blend-mode:overlay;}.cls-11,.cls-6{fill:#59595b;}.cls-10,.cls-7{fill:#434244;}.cls-8{fill:#3a393b;}.cls-12{fill:#eebd2c;}.cls-13{fill:#36492b;}.cls-14{fill:#b5c7d7;}.cls-15{opacity:0.3;}.cls-16{fill:#272425;}.cls-17{fill:#cc2e78;}</style><linearGradient id="linear-gradient" x1="10.34" y1="19.02" x2="29.33" y2="19.02" gradientUnits="userSpaceOnUse"><stop offset="0" stop-color="#9dc44d"/><stop offset="0.04" stop-color="#9ac24e"/><stop offset="0.35" stop-color="#87b258"/><stop offset="0.66" stop-color="#7ca95d"/><stop offset="1" stop-color="#78a65f"/></linearGradient></defs><title>Recurso 20</title><g class="cls-1"><g id="Capa_2" data-name="Capa 2"><g id="Layer_1" data-name="Layer 1"><circle class="cls-2" cx="19.37" cy="19.37" r="19.37"/><polygon class="cls-3" points="10.34 10.63 19.7 4.39 29.33 10.63 29.33 13.84 23.55 13.84 19.84 10.49 15.02 14.95 17.03 15.54 25.42 18.01 29.33 19.16 29.33 27.69 19.84 33.65 10.34 27.78 10.34 24.34 16.31 24.34 19.84 27.14 24.65 23.33 10.34 19.02 10.34 10.63"/><line class="cls-4" x1="23.55" y1="13.84" x2="19.7" y2="4.39"/><g class="cls-5"><polygon class="cls-4" points="19.7 4.39 19.84 10.49 23.55 13.84 19.7 4.39"/><polygon class="cls-6" points="19.7 4.39 19.84 10.49 15.02 14.95 19.7 4.39"/><polyline class="cls-6" points="23.55 13.84 29.33 10.63 29.33 13.84"/><polyline class="cls-7" points="19.7 4.39 29.33 10.63 23.55 13.84"/><polyline class="cls-8" points="10.34 10.63 15.02 14.95 19.7 4.39"/><polyline class="cls-4" points="10.34 10.63 15.02 14.95 10.34 19.02 19.7 19.02 15.02 14.95"/></g><g class="cls-9"><polygon class="cls-4" points="19.85 33.65 19.84 27.14 16.31 24.34 19.85 33.65"/><polygon class="cls-6" points="19.85 33.65 19.84 27.14 24.52 23.09 19.85 33.65"/><polyline class="cls-6" points="16.31 24.34 10.34 27.78 10.34 24.34"/><polyline class="cls-7" points="19.84 33.65 10.34 27.78 16.31 24.34"/><polyline class="cls-7" points="29.33 27.69 24.52 23.09 19.85 33.65"/><polyline class="cls-4" points="29.33 19.16 24.52 23.09 29.33 27.69"/></g><polyline class="cls-10" points="19.7 19.02 24.35 23.24 29.33 19.16"/><polygon class="cls-11" points="15.02 14.95 19.7 19.02 29.33 19.16 15.02 14.95"/><polygon class="cls-12" points="19.75 4.57 25.17 6.25 19.75 7.94 19.75 4.57"/><ellipse class="cls-13" cx="19.41" cy="18.9" rx="1.34" ry="1.54"/><path class="cls-14" d="M19.75,19.12a.39.39,0,0,1-.39.39h0a.39.39,0,0,1-.39-.39V4a.39.39,0,0,1,.39-.39h0a.39.39,0,0,1,.39.39Z"/><g class="cls-15"><polygon class="cls-16" points="22.29 32.78 27.33 30.26 21.71 29.79 22.29 32.78"/><path class="cls-16" d="M19.8,19.87a.37.37,0,0,0-.45-.27h0A.37.37,0,0,0,19,20L21.62,33.4a.37.37,0,0,0,.45.27h0a.37.37,0,0,0,.31-.42Z"/></g><ellipse class="cls-2" cx="19.37" cy="3.96" rx="0.38" ry="0.3"/><path class="cls-17" d="M20.51,6.57c0,.09.12.15.25.15s.22-.06.22-.13-.06-.1-.23-.13l-.21,0A.46.46,0,0,1,20.1,6c0-.32.27-.52.65-.52s.65.19.65.5H21c0-.1-.1-.16-.22-.16s-.2.05-.2.13.06.11.21.14l.22,0c.3.05.45.2.45.45s-.27.52-.69.52-.67-.18-.67-.49Z"/></g></g></g></svg>