<svg xmlns="http://www.w3.org/2000/svg" xmlns:xlink="http://www.w3.org/1999/xlink" viewBox="0 0 52.44 82.84"><defs><style>.cls-1{isolation:isolate;}.cls-2{fill:url(#linear-gradient);}.cls-3{fill:#7b7d84;}.cls-4{opacity:0.9;}.cls-10,.cls-4,.cls-8,.cls-9{mix-blend-mode:overlay;}.cls-10,.cls-5{fill:#6c6c6e;}.cls-6,.cls-9{fill:#555456;}.cls-7{fill:#4b494c;}.cls-11{fill:#f7c747;}.cls-12{fill:#435a3a;}.cls-13{fill:#bed0dd;}.cls-14{fill:#fff;}.cls-15{fill:#e04a89;}</style><linearGradient id="linear-gradient" y1="42.43" x2="52.44" y2="42.43" gradientUnits="userSpaceOnUse"><stop offset="0" stop-color="#a9cb65"/><stop offset="0.03" stop-color="#a7ca66"/><stop offset="0.34" stop-color="#94bc6e"/><stop offset="0.66" stop-color="#89b573"/><stop offset="1" stop-color="#85b275"/></linearGradient></defs><title>web-logo</title><g class="cls-1"><g id="Layer_2" data-name="Layer 2"><g id="Layer_1-2" data-name="Layer 1"><polygon class="cls-2" points="0 19.25 25.84 2.02 52.44 19.25 52.44 28.12 36.48 28.12 26.22 18.87 12.93 31.18 18.47 32.81 41.64 39.63 52.44 42.81 52.44 66.37 26.22 82.84 0 66.62 0 57.12 16.47 57.12 26.22 64.85 39.52 54.34 0 42.43 0 19.25"/><line class="cls-3" x1="36.48" y1="28.12" x2="25.84" y2="2.02"/><g class="cls-4"><polygon class="cls-3" points="25.84 2.02 26.22 18.87 36.48 28.12 25.84 2.02"/><polygon class="cls-5" points="25.84 2.02 26.22 18.87 12.93 31.18 25.84 2.02"/><polyline class="cls-5" points="36.48 28.12 52.44 19.25 52.44 28.12"/><polyline class="cls-6" points="25.84 2.02 52.44 19.25 36.48 28.12"/><polyline class="cls-7" points="0 19.25 12.93 31.18 25.84 2.02"/><polyline class="cls-3" points="0 19.25 12.93 31.18 0 42.43 25.84 42.43 12.93 31.18"/></g><g class="cls-8"><polygon class="cls-3" points="26.25 82.84 26.22 64.85 16.47 57.12 26.25 82.84"/><polygon class="cls-5" points="26.25 82.84 26.22 64.85 39.16 53.68 26.25 82.84"/><polyline class="cls-5" points="16.47 57.12 0 66.62 0 57.12"/><polyline class="cls-6" points="26.22 82.84 0 66.62 16.47 57.12"/><polyline class="cls-6" points="52.44 66.37 39.16 53.68 26.25 82.84"/><polyline class="cls-3" points="52.44 42.81 39.16 53.68 52.44 66.37"/></g><polyline class="cls-9" points="25.84 42.43 38.69 54.09 52.44 42.81"/><polygon class="cls-10" points="12.93 31.18 25.84 42.43 52.44 42.81 12.93 31.18"/><polygon class="cls-11" points="25.99 2.52 40.96 7.17 25.99 11.82 25.99 2.52"/><ellipse class="cls-12" cx="25.05" cy="42.11" rx="3.71" ry="4.25"/><path class="cls-13" d="M26,42.71a1.07,1.07,0,0,1-1.07,1.07h0a1.07,1.07,0,0,1-1.07-1.07V1.07A1.07,1.07,0,0,1,24.92,0h0A1.07,1.07,0,0,1,26,1.07Z"/><ellipse class="cls-14" cx="24.93" cy="0.84" rx="1.06" ry="0.84"/><path class="cls-15" d="M28.08,8.06c0,.25.34.41.68.41s.62-.15.62-.36-.16-.29-.62-.37l-.57-.1A1.27,1.27,0,0,1,27,6.36c0-.88.75-1.43,1.78-1.43s1.8.53,1.8,1.37H29.38c0-.27-.28-.43-.62-.43s-.54.14-.54.35.18.32.59.39l.59.1c.84.15,1.23.55,1.23,1.25,0,.89-.74,1.45-1.89,1.45s-1.86-.49-1.86-1.35Z"/></g></g></g></svg>