<svg xmlns="http://www.w3.org/2000/svg" viewBox="0 0 28.28 28.28"><defs><style>.cls-1{fill:#fff;}</style></defs><title>Recurso 16</title><g id="Capa_2" data-name="Capa 2"><g id="Layer_1" data-name="Layer 1"><path class="cls-1" d="M26.08,12.81l-5.31,5.31A7.42,7.42,0,0,1,9,16.61l2.47-2.47a1.77,1.77,0,0,1,.4-.27,3.69,3.69,0,0,0,.93,1.59,3.76,3.76,0,0,0,5.31,0l5.31-5.31a3.75,3.75,0,0,0-5.31-5.31L16.23,6.74a9.41,9.41,0,0,0-4.79-.52l4-4A7.51,7.51,0,1,1,26.08,12.81ZM12,21.54l-1.89,1.89a3.75,3.75,0,0,1-5.31-5.31l5.31-5.31a3.75,3.75,0,0,1,5.31,0,3.72,3.72,0,0,1,.93,1.59,1.79,1.79,0,0,0,.4-.26l2.47-2.47a7.38,7.38,0,0,0-1.14-1.51,7.51,7.51,0,0,0-10.61,0L2.2,15.47A7.51,7.51,0,0,0,12.81,26.08l4-4A9.41,9.41,0,0,1,12,21.54Zm0,0"/></g></g></svg>